<?xml version="1.0" encoding="iso-8859-1"?>
<!-- Generator: Adobe Illustrator 16.0.0, SVG Export Plug-In . SVG Version: 6.00 Build 0)  -->
<!DOCTYPE svg PUBLIC "-//W3C//DTD SVG 1.1//EN" "http://www.w3.org/Graphics/SVG/1.1/DTD/svg11.dtd">
<svg version="1.1" id="Capa_1" xmlns="http://www.w3.org/2000/svg" xmlns:xlink="http://www.w3.org/1999/xlink" x="0px" y="0px"
	 width="349.401px" height="349.401px" viewBox="0 0 349.401 349.401" style="enable-background:new 0 0 349.401 349.401;"
	 xml:space="preserve">
<g>
	<g>
		<g>
			<path d="M310.118,50.254v99.097c0,71.001-57.357,128.851-128.166,129.661v-20.849c60.318-2.048,108.765-51.755,108.765-112.574
				V50.254h-14.531v95.335c0,52.635-41.649,95.701-94.228,98.013v-23.695c41.722-2.75,74.976-37.793,74.976-80.085V50.254h-14.543
				v89.574c0,34.284-26.722,62.774-60.433,65.5v-21.905c24.644-3.219,43.385-24.196,43.385-49.456V49.414h-14.538v84.56
				c0,17.204-12.346,31.661-28.841,34.747V64.645H167.42v104.469c-17.456-2.171-31.009-17.099-31.009-35.14v-84.56h-14.541v84.56
				c0,26.052,20.044,47.516,45.555,49.762v21.755c-34.807-1.634-62.615-30.462-62.615-65.662V50.254H90.271v89.574
				c0,43.222,34.33,78.566,77.156,80.212v23.641c-53.274-0.955-96.311-44.592-96.311-98.085V50.254H56.581v95.335
				c0,61.516,49.555,111.662,110.845,112.622v20.795c-70.83-0.805-128.172-58.66-128.172-129.655V50.254H24.716v99.097
				c0,79.011,63.876,143.382,142.698,144.205v15.702h-22.899l-24.527,40.143h108.819l-22.314-40.143h-24.529v-15.702
				c78.837-0.805,142.722-65.183,142.722-144.205V50.254H310.118z M145.905,334.87l6.758-11.067h14.751v10.437h14.543v-10.437
				h15.973l6.155,11.067H145.905z"/>
		</g>
		<g>
			<path d="M33.997,33.068c1.504-3.681,2.39-8.583,2.423-13.478c-0.015-4.888-0.904-9.794-2.405-13.466
				C32.667,2.447,30.76,0,30.76,0s-1.897,2.447-3.246,6.125c-1.501,3.672-2.393,8.578-2.405,13.466
				c0.018,4.9,0.916,9.803,2.423,13.478c1.348,3.672,3.228,6.119,3.228,6.119S32.655,36.74,33.997,33.068z"/>
		</g>
		<g>
			<path d="M64.36,39.188c0,0,1.891-2.447,3.228-6.119c1.507-3.681,2.411-8.583,2.429-13.478c-0.018-4.888-0.904-9.794-2.411-13.46
				c-1.345-3.684-3.245-6.125-3.245-6.125s-1.895,2.441-3.243,6.125c-1.51,3.666-2.39,8.572-2.408,13.46
				c0.024,4.9,0.922,9.803,2.429,13.478C62.478,36.74,64.36,39.188,64.36,39.188z"/>
		</g>
		<g>
			<path d="M98.284,39.188c0,0,1.879-2.447,3.228-6.119c1.504-3.681,2.402-8.583,2.429-13.478c-0.006-4.888-0.897-9.794-2.411-13.46
				c-1.348-3.684-3.246-6.125-3.246-6.125s-1.895,2.441-3.243,6.125c-1.513,3.666-2.39,8.572-2.411,13.46
				c0.027,4.9,0.925,9.803,2.429,13.478C96.401,36.74,98.284,39.188,98.284,39.188z"/>
		</g>
		<g>
			<path d="M127.482,39.188c0,0,1.895-2.447,3.23-6.119c1.492-3.681,2.402-8.583,2.429-13.478c-0.021-4.888-0.904-9.794-2.411-13.46
				c-1.348-3.684-3.249-6.125-3.249-6.125s-1.892,2.441-3.246,6.125c-1.507,3.666-2.399,8.572-2.405,13.46
				c0.027,4.9,0.925,9.803,2.429,13.478C125.597,36.74,127.482,39.188,127.482,39.188z"/>
		</g>
		<g>
			<path d="M217.873,39.188c0,0,1.879-2.447,3.225-6.119c1.501-3.681,2.396-8.583,2.426-13.478
				c-0.013-4.888-0.901-9.794-2.402-13.46c-1.356-3.684-3.248-6.125-3.248-6.125s-1.904,2.441-3.249,6.125
				c-1.501,3.666-2.396,8.572-2.414,13.46c0.024,4.9,0.925,9.803,2.426,13.478C215.981,36.74,217.873,39.188,217.873,39.188z"/>
		</g>
		<g>
			<path d="M174.689,50.5c0,0,1.895-2.453,3.233-6.128c1.501-3.672,2.404-8.572,2.429-13.465c-0.006-4.903-0.897-9.803-2.411-13.475
				c-1.351-3.669-3.251-6.119-3.251-6.119s-1.901,2.45-3.24,6.119c-1.513,3.672-2.393,8.572-2.411,13.475
				c0.018,4.894,0.916,9.793,2.429,13.465C172.801,48.048,174.689,50.5,174.689,50.5z"/>
		</g>
		<g>
			<path d="M251.464,39.188c0,0,1.903-2.447,3.236-6.119c1.501-3.681,2.401-8.583,2.426-13.478c-0.018-4.888-0.9-9.794-2.414-13.46
				c-1.345-3.684-3.248-6.125-3.248-6.125s-1.892,2.441-3.249,6.125c-1.501,3.666-2.39,8.572-2.401,13.46
				c0.029,4.9,0.924,9.803,2.426,13.478C249.59,36.74,251.464,39.188,251.464,39.188z"/>
		</g>
		<g>
			<path d="M285.396,39.188c0,0,1.886-2.447,3.225-6.119c1.501-3.681,2.408-8.583,2.42-13.478c0-4.888-0.895-9.794-2.401-13.46
				c-1.352-3.684-3.243-6.125-3.243-6.125s-1.909,2.441-3.249,6.125c-1.507,3.666-2.396,8.572-2.407,13.46
				c0.023,4.9,0.913,9.803,2.426,13.478C283.505,36.74,285.396,39.188,285.396,39.188z"/>
		</g>
		<g>
			<path d="M314.592,39.188c0,0,1.886-2.447,3.225-6.119c1.495-3.681,2.408-8.583,2.432-13.478c-0.012-4.888-0.9-9.794-2.413-13.46
				c-1.357-3.684-3.243-6.125-3.243-6.125s-1.903,2.441-3.249,6.125c-1.501,3.666-2.396,8.572-2.407,13.46
				c0.023,4.9,0.919,9.803,2.426,13.478C312.694,36.74,314.592,39.188,314.592,39.188z"/>
		</g>
	</g>
</g>
<g>
</g>
<g>
</g>
<g>
</g>
<g>
</g>
<g>
</g>
<g>
</g>
<g>
</g>
<g>
</g>
<g>
</g>
<g>
</g>
<g>
</g>
<g>
</g>
<g>
</g>
<g>
</g>
<g>
</g>
</svg>
