<?xml version="1.0" encoding="iso-8859-1"?>
<!-- Generator: Adobe Illustrator 19.0.0, SVG Export Plug-In . SVG Version: 6.00 Build 0)  -->
<svg version="1.1" id="Capa_1" xmlns="http://www.w3.org/2000/svg" xmlns:xlink="http://www.w3.org/1999/xlink" x="0px" y="0px"
	 viewBox="0 0 512 512" style="enable-background:new 0 0 512 512;" xml:space="preserve">
<g>
	<g>
		<path d="M477.702,128H329.9L255.999,0l-73.901,128H34.297l73.901,128L34.297,384H182.1l73.9,128L329.9,384h147.802l-73.901-128
			L477.702,128z M425.741,158l-39.26,68l-39.26-68H425.741z M255.999,60l39.26,68h-78.52L255.999,60z M86.259,158h78.519l-39.26,68
			L86.259,158z M86.259,354l39.26-68l39.26,68H86.259z M255.999,452l-39.26-68h78.52L255.999,452z M312.579,354h-113.16l-56.58-98
			l56.58-98H312.58l56.58,98L312.579,354z M425.741,354h-78.52l39.26-68L425.741,354z"/>
	</g>
</g>
<g>
</g>
<g>
</g>
<g>
</g>
<g>
</g>
<g>
</g>
<g>
</g>
<g>
</g>
<g>
</g>
<g>
</g>
<g>
</g>
<g>
</g>
<g>
</g>
<g>
</g>
<g>
</g>
<g>
</g>
</svg>
